<svg t="1592122095549" class="icon" viewBox="0 0 1024 1024" version="1.1"
  xmlns="http://www.w3.org/2000/svg" p-id="1126"
  xmlns:xlink="http://www.w3.org/1999/xlink" width="200" height="200">
  <path d="M864 0h-152c-88.224 0-160 71.776-160 160v152c0 88.224 71.776 160 160 160h152c88.224 0 160-71.776 160-160V160c0-88.224-71.776-160-160-160z m80 312c0 44.112-35.888 80-80 80h-152c-44.112 0-80-35.888-80-80V160c0-44.112 35.888-80 80-80h152c44.112 0 80 35.888 80 80v152zM312 0H160C71.776 0 0 71.776 0 160v152c0 88.224 71.776 160 160 160h152c88.224 0 160-71.776 160-160V160c0-88.224-71.776-160-160-160z m80 312c0 44.112-35.888 80-80 80H160c-44.112 0-80-35.888-80-80V160c0-44.112 35.888-80 80-80h152c44.112 0 80 35.888 80 80v152zM312 552H160c-88.224 0-160 71.776-160 160v152c0 88.224 71.776 160 160 160h152c88.224 0 160-71.776 160-160v-152c0-88.224-71.776-160-160-160z m80 312c0 44.112-35.888 80-80 80H160c-44.112 0-80-35.888-80-80v-152c0-44.112 35.888-80 80-80h152c44.112 0 80 35.888 80 80v152zM984 824c-22.092 0-40 17.908-40 40 0 44.112-35.888 80-80 80h-152c-44.112 0-80-35.888-80-80v-152c0-44.112 35.888-80 80-80h152a80.06 80.06 0 0 1 73.35 47.992c8.85 20.242 32.436 29.472 52.676 20.624 20.242-8.852 29.474-32.436 20.624-52.676C985.164 589.658 927.6 552 864 552h-152c-88.224 0-160 71.776-160 160v152c0 88.224 71.776 160 160 160h152c88.224 0 160-71.776 160-160 0-22.092-17.908-40-40-40z" p-id="1127"></path>
</svg>
